<?xml version="1.0" encoding="utf-8"?>
<!-- Uploaded to: SVG Repo, www.svgrepo.com, Generator: SVG Repo Mixer Tools -->
<svg fill="#000000" version="1.1" id="Layer_1" xmlns="http://www.w3.org/2000/svg" xmlns:xlink="http://www.w3.org/1999/xlink" 
	 width="800px" height="800px" viewBox="0 0 256 213" enable-background="new 0 0 256 213" xml:space="preserve">
<path d="M128,85.087c-23.263,0-42.161,18.898-42.161,42.161c0,23.263,18.898,42.161,42.161,42.161
	c23.008,0,41.907-18.898,42.161-42.161C170.161,103.985,151.263,85.087,128,85.087z M154.61,120.383
	c-0.339,1.059-1.102,1.949-2.161,2.5l-24.025,11.483c-0.678,0.297-1.398,0.508-2.034,0.508c-0.593,0-1.229-0.169-1.949-0.508
	c-1.398-0.763-2.288-2.246-2.288-3.814v-28.771c0-2.542,2.119-4.068,4.153-4.068c1.059,0,1.949,0.297,2.712,0.975l0.042,0.042
	c0.763,0.805,1.186,1.864,1.186,3.051v21.992l18.602-8.305c2.331-1.186,4.364-0.085,5.339,1.525
	C154.737,118.053,154.864,119.282,154.61,120.383z M228.849,40H163V16.275C163,7.513,155.222,2,145.649,2c0,0-36.497,0-36.298,0
	C99.978,2,92,7.513,92,16.275V41H27.164C14.138,41,2,52.056,2,66.666c0,0.395,0,117.569,0,117.569C2,200.523,14.171,211,27,211
	h201.947c12.772,0,25.053-9.589,25.053-26.07c0,0,0-118.461,0-118.961C253.902,51.187,241.818,40,228.849,40z M105,16h45v25h-45V16z
	 M128,179.79c-28.983,0-52.542-23.559-52.542-52.542c0-28.941,23.559-52.458,52.542-52.458c28.898,0,52.458,23.517,52.542,52.458
	C180.542,156.231,156.983,179.79,128,179.79z"/>
</svg>